<?xml version="1.0" encoding="UTF-8" standalone="no"?>
<!DOCTYPE svg PUBLIC "-//W3C//DTD SVG 1.1//EN" "http://www.w3.org/Graphics/SVG/1.1/DTD/svg11.dtd">
<svg width="100%" height="100%" viewBox="0 0 600 72" version="1.1" xmlns="http://www.w3.org/2000/svg" xmlns:xlink="http://www.w3.org/1999/xlink" xml:space="preserve" xmlns:serif="http://www.serif.com/" style="fill-rule:evenodd;clip-rule:evenodd;stroke-linejoin:round;stroke-miterlimit:2;">
    <g transform="matrix(1,0,0,1,-1318,-30)">
        <g id="Artboard2" transform="matrix(1.01283,0,0,0.561623,-17.3202,12.9381)">
            <rect x="1318.4" y="30.38" width="592.399" height="127.945" style="fill:none;"/>
            <g transform="matrix(0.919563,0,0,0.596728,1202.04,-95.3451)">
                <rect x="143.694" y="226.515" width="11.002" height="173.939" style="fill:rgb(253,126,20);"/>
            </g>
            <g transform="matrix(0.987332,0,0,1.78055,1172.21,-469.112)">
                <g transform="matrix(54.1667,0,0,54.1667,192.229,333.507)">
                    <path d="M0.309,0.02C0.266,0.02 0.228,0.014 0.194,0.002C0.16,-0.01 0.131,-0.027 0.107,-0.049C0.082,-0.072 0.064,-0.099 0.051,-0.131C0.038,-0.164 0.032,-0.2 0.032,-0.241L0.032,-0.242L0.23,-0.242L0.23,-0.241C0.23,-0.223 0.233,-0.207 0.239,-0.194C0.245,-0.181 0.254,-0.171 0.266,-0.164C0.277,-0.157 0.29,-0.154 0.306,-0.154C0.329,-0.154 0.346,-0.161 0.358,-0.176C0.37,-0.19 0.376,-0.211 0.376,-0.239L0.376,-0.705L0.583,-0.705L0.583,-0.237C0.583,-0.183 0.572,-0.137 0.551,-0.098C0.529,-0.06 0.498,-0.031 0.457,-0.011C0.416,0.009 0.367,0.02 0.309,0.02Z" style="fill-rule:nonzero;"/>
                </g>
                <g transform="matrix(54.1667,0,0,54.1667,229.839,333.507)">
                    <path d="M0.212,0.008C0.177,0.008 0.146,0.001 0.12,-0.013C0.094,-0.027 0.073,-0.046 0.059,-0.071C0.044,-0.096 0.037,-0.125 0.037,-0.159L0.037,-0.16C0.037,-0.193 0.046,-0.221 0.063,-0.245C0.08,-0.269 0.106,-0.288 0.139,-0.302C0.173,-0.315 0.214,-0.324 0.262,-0.327L0.469,-0.339L0.469,-0.233L0.294,-0.222C0.274,-0.22 0.257,-0.216 0.246,-0.207C0.234,-0.199 0.228,-0.188 0.228,-0.175L0.228,-0.174C0.228,-0.16 0.234,-0.149 0.245,-0.14C0.256,-0.131 0.271,-0.127 0.29,-0.127C0.305,-0.127 0.319,-0.13 0.331,-0.136C0.343,-0.142 0.353,-0.15 0.36,-0.16C0.367,-0.171 0.371,-0.182 0.371,-0.195L0.371,-0.374C0.371,-0.388 0.365,-0.399 0.354,-0.407C0.343,-0.415 0.328,-0.419 0.309,-0.419C0.289,-0.419 0.273,-0.416 0.261,-0.41C0.249,-0.404 0.24,-0.395 0.236,-0.384L0.235,-0.381L0.056,-0.381L0.057,-0.388C0.06,-0.423 0.072,-0.454 0.094,-0.48C0.116,-0.506 0.146,-0.526 0.184,-0.541C0.223,-0.555 0.268,-0.563 0.321,-0.563C0.373,-0.563 0.418,-0.555 0.454,-0.54C0.491,-0.525 0.519,-0.504 0.538,-0.476C0.557,-0.448 0.567,-0.414 0.567,-0.374L0.567,-0L0.371,-0L0.371,-0.064L0.361,-0.064C0.354,-0.05 0.343,-0.038 0.329,-0.027C0.314,-0.016 0.297,-0.007 0.277,-0.001C0.257,0.005 0.235,0.008 0.212,0.008Z" style="fill-rule:nonzero;"/>
                </g>
                <g transform="matrix(54.1667,0,0,54.1667,265.994,333.507)">
                    <path d="M0.322,0.014C0.259,0.014 0.206,0.003 0.164,-0.019C0.122,-0.04 0.09,-0.072 0.069,-0.115C0.047,-0.158 0.037,-0.211 0.037,-0.274L0.037,-0.275C0.037,-0.339 0.047,-0.392 0.069,-0.434C0.09,-0.477 0.122,-0.509 0.164,-0.53C0.206,-0.552 0.259,-0.563 0.322,-0.563C0.374,-0.563 0.419,-0.554 0.457,-0.536C0.494,-0.519 0.524,-0.493 0.545,-0.459C0.566,-0.425 0.578,-0.384 0.582,-0.335L0.4,-0.335L0.4,-0.335C0.397,-0.361 0.389,-0.381 0.377,-0.394C0.364,-0.407 0.346,-0.414 0.323,-0.414C0.304,-0.414 0.288,-0.409 0.276,-0.399C0.263,-0.39 0.254,-0.375 0.249,-0.354C0.243,-0.334 0.24,-0.308 0.24,-0.275L0.24,-0.274C0.24,-0.242 0.243,-0.216 0.249,-0.195C0.254,-0.174 0.263,-0.159 0.276,-0.149C0.288,-0.14 0.304,-0.135 0.323,-0.135C0.346,-0.135 0.364,-0.141 0.377,-0.153C0.389,-0.165 0.397,-0.184 0.399,-0.209L0.581,-0.209L0.581,-0.208C0.578,-0.162 0.566,-0.123 0.544,-0.089C0.523,-0.056 0.493,-0.031 0.455,-0.013C0.418,0.005 0.373,0.014 0.322,0.014Z" style="fill-rule:nonzero;"/>
                </g>
                <g transform="matrix(54.1667,0,0,54.1667,301.488,333.507)">
                    <path d="M0.324,0.014C0.264,0.014 0.212,0.002 0.169,-0.021C0.126,-0.043 0.094,-0.076 0.071,-0.119C0.048,-0.162 0.037,-0.214 0.037,-0.274L0.037,-0.275C0.037,-0.335 0.048,-0.386 0.072,-0.428C0.095,-0.471 0.128,-0.504 0.171,-0.528C0.214,-0.551 0.265,-0.563 0.324,-0.563C0.384,-0.563 0.435,-0.551 0.478,-0.528C0.521,-0.505 0.554,-0.472 0.577,-0.429C0.6,-0.386 0.612,-0.335 0.612,-0.275L0.612,-0.274C0.612,-0.214 0.601,-0.162 0.578,-0.119C0.555,-0.076 0.522,-0.043 0.479,-0.021C0.437,0.002 0.385,0.014 0.324,0.014ZM0.324,-0.135C0.342,-0.135 0.357,-0.14 0.369,-0.151C0.381,-0.162 0.39,-0.178 0.397,-0.199C0.403,-0.22 0.407,-0.245 0.407,-0.274L0.407,-0.275C0.407,-0.304 0.403,-0.328 0.397,-0.349C0.39,-0.37 0.381,-0.386 0.368,-0.397C0.356,-0.408 0.341,-0.414 0.324,-0.414C0.307,-0.414 0.293,-0.408 0.28,-0.397C0.268,-0.386 0.258,-0.37 0.252,-0.349C0.245,-0.328 0.242,-0.304 0.242,-0.275L0.242,-0.274C0.242,-0.245 0.245,-0.22 0.251,-0.199C0.258,-0.178 0.267,-0.162 0.28,-0.151C0.292,-0.14 0.307,-0.135 0.324,-0.135Z" style="fill-rule:nonzero;"/>
                </g>
                <g transform="matrix(54.1667,0,0,54.1667,338.781,333.507)">
                    <path d="M0.436,0.008C0.41,0.008 0.386,0.004 0.365,-0.003C0.344,-0.01 0.327,-0.02 0.312,-0.034C0.297,-0.047 0.286,-0.064 0.278,-0.083L0.269,-0.083L0.269,-0L0.068,-0L0.068,-0.751L0.269,-0.751L0.269,-0.46L0.278,-0.46C0.287,-0.48 0.299,-0.498 0.314,-0.512C0.329,-0.527 0.347,-0.538 0.367,-0.545C0.388,-0.553 0.411,-0.557 0.436,-0.557C0.482,-0.557 0.521,-0.546 0.553,-0.524C0.586,-0.502 0.61,-0.47 0.627,-0.428C0.643,-0.386 0.652,-0.335 0.652,-0.275L0.652,-0.274C0.652,-0.214 0.643,-0.164 0.626,-0.122C0.609,-0.08 0.584,-0.048 0.552,-0.025C0.52,-0.003 0.481,0.008 0.436,0.008ZM0.358,-0.153C0.377,-0.153 0.392,-0.158 0.406,-0.168C0.42,-0.177 0.43,-0.191 0.438,-0.209C0.445,-0.227 0.449,-0.249 0.449,-0.274L0.449,-0.275C0.449,-0.3 0.445,-0.321 0.438,-0.339C0.43,-0.357 0.42,-0.371 0.406,-0.381C0.392,-0.391 0.377,-0.396 0.358,-0.396C0.34,-0.396 0.325,-0.391 0.311,-0.381C0.297,-0.372 0.287,-0.358 0.279,-0.34C0.271,-0.322 0.268,-0.3 0.268,-0.274L0.268,-0.273C0.268,-0.248 0.271,-0.227 0.279,-0.209C0.286,-0.191 0.297,-0.177 0.311,-0.167C0.324,-0.158 0.34,-0.153 0.358,-0.153Z" style="fill-rule:nonzero;"/>
                </g>
                <g transform="matrix(54.1667,0,0,54.1667,378.242,333.507)">
                </g>
                <g transform="matrix(54.1667,0,0,54.1667,393.106,333.507)">
                    <path d="M0.378,0.017C0.312,0.017 0.256,0.002 0.208,-0.028C0.161,-0.058 0.124,-0.1 0.098,-0.155C0.072,-0.21 0.059,-0.276 0.059,-0.352L0.059,-0.353C0.059,-0.429 0.072,-0.494 0.098,-0.549C0.124,-0.604 0.16,-0.647 0.208,-0.677C0.255,-0.707 0.312,-0.722 0.377,-0.722C0.429,-0.722 0.476,-0.712 0.518,-0.691C0.56,-0.671 0.594,-0.643 0.621,-0.607C0.648,-0.571 0.664,-0.53 0.67,-0.483L0.67,-0.481L0.561,-0.481L0.561,-0.482C0.554,-0.511 0.542,-0.536 0.525,-0.558C0.507,-0.579 0.486,-0.595 0.461,-0.607C0.436,-0.619 0.408,-0.625 0.377,-0.625C0.335,-0.625 0.299,-0.614 0.268,-0.591C0.237,-0.569 0.214,-0.538 0.197,-0.497C0.18,-0.457 0.172,-0.409 0.172,-0.353L0.172,-0.352C0.172,-0.296 0.18,-0.248 0.197,-0.207C0.214,-0.167 0.237,-0.135 0.268,-0.113C0.299,-0.091 0.335,-0.08 0.378,-0.08C0.409,-0.08 0.437,-0.085 0.462,-0.096C0.487,-0.106 0.508,-0.121 0.525,-0.14C0.542,-0.16 0.554,-0.183 0.56,-0.209L0.561,-0.211L0.67,-0.211L0.67,-0.208C0.663,-0.163 0.647,-0.124 0.62,-0.09C0.594,-0.056 0.56,-0.03 0.519,-0.011C0.477,0.008 0.43,0.017 0.378,0.017Z" style="fill:rgb(77,77,77);fill-rule:nonzero;"/>
                </g>
                <g transform="matrix(54.1667,0,0,54.1667,434.553,333.507)">
                    <path d="M0.221,0.009C0.188,0.009 0.158,0.003 0.131,-0.01C0.105,-0.023 0.084,-0.042 0.069,-0.065C0.054,-0.089 0.046,-0.117 0.046,-0.149L0.046,-0.15C0.046,-0.182 0.054,-0.209 0.069,-0.231C0.084,-0.254 0.107,-0.272 0.136,-0.285C0.166,-0.297 0.202,-0.305 0.244,-0.308L0.44,-0.319L0.44,-0.244L0.258,-0.233C0.222,-0.231 0.195,-0.223 0.178,-0.21C0.16,-0.197 0.152,-0.178 0.152,-0.154L0.152,-0.153C0.152,-0.129 0.161,-0.11 0.18,-0.096C0.198,-0.083 0.222,-0.076 0.25,-0.076C0.277,-0.076 0.3,-0.081 0.321,-0.092C0.341,-0.102 0.357,-0.117 0.369,-0.135C0.381,-0.153 0.387,-0.173 0.387,-0.196L0.387,-0.363C0.387,-0.392 0.378,-0.414 0.36,-0.43C0.342,-0.445 0.315,-0.453 0.279,-0.453C0.25,-0.453 0.226,-0.448 0.207,-0.437C0.188,-0.427 0.176,-0.413 0.169,-0.394L0.169,-0.392L0.067,-0.392L0.067,-0.396C0.071,-0.425 0.083,-0.45 0.102,-0.472C0.121,-0.493 0.146,-0.51 0.177,-0.522C0.208,-0.535 0.244,-0.541 0.284,-0.541C0.328,-0.541 0.366,-0.533 0.397,-0.519C0.428,-0.505 0.452,-0.485 0.468,-0.458C0.484,-0.432 0.492,-0.4 0.492,-0.363L0.492,-0L0.387,-0L0.387,-0.075L0.379,-0.075C0.368,-0.057 0.356,-0.042 0.34,-0.03C0.324,-0.017 0.307,-0.007 0.287,-0.001C0.267,0.006 0.245,0.009 0.221,0.009Z" style="fill:rgb(77,77,77);fill-rule:nonzero;"/>
                </g>
                <g transform="matrix(54.1667,0,0,54.1667,467.36,333.507)">
                    <path d="M0.076,-0L0.076,-0.53L0.182,-0.53L0.182,-0.449L0.19,-0.449C0.202,-0.478 0.22,-0.501 0.245,-0.517C0.27,-0.533 0.3,-0.541 0.335,-0.541C0.359,-0.541 0.381,-0.537 0.4,-0.529C0.419,-0.521 0.436,-0.51 0.449,-0.496C0.463,-0.482 0.474,-0.465 0.482,-0.446L0.49,-0.446C0.499,-0.465 0.512,-0.482 0.528,-0.496C0.543,-0.51 0.562,-0.521 0.583,-0.529C0.604,-0.537 0.627,-0.541 0.652,-0.541C0.687,-0.541 0.718,-0.534 0.743,-0.52C0.769,-0.506 0.788,-0.486 0.801,-0.46C0.815,-0.434 0.822,-0.403 0.822,-0.366L0.822,-0L0.715,-0L0.715,-0.34C0.715,-0.365 0.712,-0.385 0.704,-0.401C0.697,-0.417 0.686,-0.429 0.67,-0.437C0.655,-0.446 0.636,-0.45 0.613,-0.45C0.591,-0.45 0.571,-0.445 0.554,-0.434C0.538,-0.424 0.525,-0.41 0.515,-0.393C0.506,-0.376 0.502,-0.357 0.502,-0.335L0.502,-0L0.395,-0L0.395,-0.351C0.395,-0.371 0.391,-0.389 0.383,-0.403C0.375,-0.418 0.363,-0.43 0.348,-0.438C0.333,-0.446 0.314,-0.45 0.294,-0.45C0.272,-0.45 0.253,-0.444 0.237,-0.433C0.22,-0.422 0.206,-0.407 0.197,-0.388C0.187,-0.37 0.182,-0.349 0.182,-0.325L0.182,-0L0.076,-0Z" style="fill:rgb(77,77,77);fill-rule:nonzero;"/>
                </g>
                <g transform="matrix(54.1667,0,0,54.1667,517.892,333.507)">
                    <path d="M0.076,0.177L0.076,-0.53L0.182,-0.53L0.182,-0.447L0.19,-0.447C0.201,-0.466 0.214,-0.483 0.23,-0.497C0.246,-0.51 0.264,-0.521 0.285,-0.528C0.306,-0.536 0.329,-0.539 0.353,-0.539C0.398,-0.539 0.437,-0.528 0.47,-0.506C0.503,-0.483 0.528,-0.451 0.546,-0.411C0.564,-0.37 0.573,-0.321 0.573,-0.266L0.573,-0.265C0.573,-0.209 0.564,-0.16 0.546,-0.119C0.528,-0.078 0.503,-0.047 0.47,-0.025C0.437,-0.002 0.398,0.009 0.353,0.009C0.329,0.009 0.306,0.005 0.285,-0.002C0.264,-0.01 0.245,-0.021 0.229,-0.035C0.213,-0.048 0.2,-0.065 0.19,-0.084L0.182,-0.084L0.182,0.177L0.076,0.177ZM0.323,-0.082C0.353,-0.082 0.378,-0.089 0.399,-0.104C0.42,-0.119 0.437,-0.14 0.448,-0.167C0.459,-0.194 0.465,-0.227 0.465,-0.265L0.465,-0.266C0.465,-0.304 0.459,-0.336 0.448,-0.364C0.437,-0.391 0.42,-0.412 0.399,-0.427C0.378,-0.441 0.353,-0.449 0.323,-0.449C0.294,-0.449 0.268,-0.441 0.247,-0.426C0.226,-0.412 0.209,-0.391 0.198,-0.363C0.186,-0.336 0.181,-0.304 0.181,-0.266L0.181,-0.265C0.181,-0.227 0.186,-0.195 0.198,-0.167C0.209,-0.14 0.226,-0.119 0.247,-0.104C0.269,-0.089 0.294,-0.082 0.323,-0.082Z" style="fill:rgb(77,77,77);fill-rule:nonzero;"/>
                </g>
                <g transform="matrix(54.1667,0,0,54.1667,553.849,333.507)">
                    <path d="M0.358,0.009C0.334,0.009 0.311,0.005 0.29,-0.002C0.269,-0.01 0.251,-0.02 0.235,-0.034C0.219,-0.048 0.206,-0.064 0.195,-0.084L0.187,-0.084L0.187,-0L0.081,-0L0.081,-0.738L0.187,-0.738L0.187,-0.446L0.195,-0.446C0.205,-0.466 0.218,-0.482 0.234,-0.496C0.25,-0.51 0.269,-0.52 0.29,-0.528C0.311,-0.536 0.334,-0.539 0.358,-0.539C0.403,-0.539 0.442,-0.528 0.475,-0.506C0.508,-0.484 0.533,-0.452 0.551,-0.411C0.569,-0.37 0.578,-0.322 0.578,-0.266L0.578,-0.265C0.578,-0.209 0.569,-0.161 0.551,-0.12C0.533,-0.079 0.508,-0.047 0.475,-0.025C0.442,-0.002 0.403,0.009 0.358,0.009ZM0.328,-0.082C0.358,-0.082 0.383,-0.089 0.404,-0.104C0.425,-0.119 0.442,-0.14 0.453,-0.167C0.464,-0.194 0.47,-0.227 0.47,-0.265L0.47,-0.266C0.47,-0.304 0.464,-0.336 0.453,-0.364C0.442,-0.391 0.425,-0.412 0.404,-0.427C0.383,-0.441 0.358,-0.449 0.328,-0.449C0.299,-0.449 0.273,-0.441 0.252,-0.426C0.231,-0.412 0.214,-0.391 0.203,-0.363C0.191,-0.336 0.185,-0.304 0.185,-0.266L0.185,-0.265C0.185,-0.227 0.191,-0.195 0.203,-0.167C0.214,-0.14 0.231,-0.119 0.252,-0.104C0.273,-0.089 0.299,-0.082 0.328,-0.082Z" style="fill:rgb(77,77,77);fill-rule:nonzero;"/>
                </g>
                <g transform="matrix(54.1667,0,0,54.1667,590.027,333.507)">
                    <path d="M0.299,0.01C0.247,0.01 0.203,-0.001 0.166,-0.023C0.128,-0.046 0.1,-0.077 0.08,-0.118C0.06,-0.159 0.05,-0.208 0.05,-0.264L0.05,-0.264C0.05,-0.32 0.06,-0.368 0.08,-0.409C0.1,-0.451 0.128,-0.483 0.165,-0.506C0.201,-0.529 0.244,-0.541 0.293,-0.541C0.343,-0.541 0.385,-0.529 0.421,-0.507C0.457,-0.485 0.484,-0.454 0.504,-0.414C0.523,-0.374 0.532,-0.328 0.532,-0.275L0.532,-0.237L0.104,-0.237L0.104,-0.313L0.48,-0.313L0.429,-0.243L0.429,-0.285C0.429,-0.323 0.423,-0.354 0.411,-0.379C0.4,-0.404 0.384,-0.423 0.364,-0.435C0.344,-0.447 0.32,-0.454 0.294,-0.454C0.268,-0.454 0.244,-0.447 0.224,-0.434C0.203,-0.421 0.187,-0.402 0.175,-0.377C0.163,-0.352 0.157,-0.321 0.157,-0.285L0.157,-0.243C0.157,-0.208 0.163,-0.178 0.174,-0.153C0.186,-0.129 0.203,-0.11 0.224,-0.097C0.246,-0.084 0.272,-0.077 0.301,-0.077C0.324,-0.077 0.344,-0.08 0.36,-0.087C0.377,-0.093 0.39,-0.101 0.401,-0.11C0.411,-0.12 0.418,-0.129 0.422,-0.138L0.424,-0.142L0.527,-0.142L0.526,-0.138C0.521,-0.12 0.513,-0.103 0.502,-0.085C0.491,-0.068 0.476,-0.052 0.457,-0.038C0.438,-0.023 0.416,-0.012 0.389,-0.003C0.363,0.006 0.333,0.01 0.299,0.01Z" style="fill:rgb(77,77,77);fill-rule:nonzero;"/>
                </g>
                <g transform="matrix(54.1667,0,0,54.1667,623.728,333.507)">
                    <rect x="0.081" y="-0.738" width="0.106" height="0.738" style="fill:rgb(77,77,77);fill-rule:nonzero;"/>
                </g>
                <g transform="matrix(54.1667,0,0,54.1667,640.431,333.507)">
                    <rect x="0.081" y="-0.738" width="0.106" height="0.738" style="fill:rgb(77,77,77);fill-rule:nonzero;"/>
                </g>
                <g transform="matrix(54.1667,0,0,54.1667,654.967,333.507)">
                    <path d="M0.058,0.183L0.1,-0.104L0.214,-0.104L0.133,0.183L0.058,0.183Z" style="fill:rgb(77,77,77);fill-rule:nonzero;"/>
                </g>
                <g transform="matrix(54.1667,0,0,54.1667,674.225,333.507)">
                    <path d="M0.199,0.02C0.167,0.02 0.14,0.01 0.121,-0.01C0.101,-0.03 0.091,-0.056 0.091,-0.086C0.091,-0.117 0.101,-0.143 0.121,-0.163C0.14,-0.182 0.167,-0.192 0.199,-0.192C0.232,-0.192 0.258,-0.182 0.278,-0.163C0.298,-0.143 0.308,-0.117 0.308,-0.086C0.308,-0.056 0.298,-0.03 0.278,-0.01C0.258,0.01 0.232,0.02 0.199,0.02Z" style="fill:rgb(253,126,20);fill-rule:nonzero;"/>
                </g>
                <g transform="matrix(54.1667,0,0,54.1667,697.976,333.507)">
                    <path d="M0.199,0.02C0.167,0.02 0.14,0.01 0.121,-0.01C0.101,-0.03 0.091,-0.056 0.091,-0.086C0.091,-0.117 0.101,-0.143 0.121,-0.163C0.14,-0.182 0.167,-0.192 0.199,-0.192C0.232,-0.192 0.258,-0.182 0.278,-0.163C0.298,-0.143 0.308,-0.117 0.308,-0.086C0.308,-0.056 0.298,-0.03 0.278,-0.01C0.258,0.01 0.232,0.02 0.199,0.02Z" style="fill:rgb(253,126,20);fill-rule:nonzero;"/>
                </g>
                <g transform="matrix(54.1667,0,0,54.1667,721.727,333.507)">
                    <path d="M0.199,0.02C0.167,0.02 0.14,0.01 0.121,-0.01C0.101,-0.03 0.091,-0.056 0.091,-0.086C0.091,-0.117 0.101,-0.143 0.121,-0.163C0.14,-0.182 0.167,-0.192 0.199,-0.192C0.232,-0.192 0.258,-0.182 0.278,-0.163C0.298,-0.143 0.308,-0.117 0.308,-0.086C0.308,-0.056 0.298,-0.03 0.278,-0.01C0.258,0.01 0.232,0.02 0.199,0.02Z" style="fill:rgb(253,126,20);fill-rule:nonzero;"/>
                </g>
                <g transform="matrix(54.1667,0,0,54.1667,745.478,333.507)">
                </g>
            </g>
        </g>
    </g>
</svg>
