<?xml version="1.0" encoding="utf-8"?>
<!-- Generator: Adobe Illustrator 16.0.0, SVG Export Plug-In . SVG Version: 6.00 Build 0)  -->
<!DOCTYPE svg PUBLIC "-//W3C//DTD SVG 1.1//EN" "http://www.w3.org/Graphics/SVG/1.1/DTD/svg11.dtd">
<svg version="1.1" id="Layer_1" xmlns="http://www.w3.org/2000/svg" xmlns:xlink="http://www.w3.org/1999/xlink" x="0px" y="0px"
	 width="1225.888px" height="179.452px" viewBox="0 0 1225.888 179.452" enable-background="new 0 0 1225.888 179.452"
	 xml:space="preserve">
<g>
	<path d="M114.08,52.155l-9.363-0.66v-6.463h39.329v6.463l-8.161,0.66l-2.141,1.847v44.981c0,24.666-9.229,36.142-31.035,36.142
		c-6.287,0-12.574-1.055-19.129-3.165v-23.743h9.766l3.076,17.411l1.873,1.715c0.669,0,1.471,0.132,2.139,0.132
		c12.176,0,15.787-9.103,15.787-28.36V54.002L114.08,52.155z"/>
	<path d="M167.518,134.731c-10.301,0-17.523-7.124-17.523-17.147c0-15.17,12.707-18.997,40.666-25.197v-3.957
		c0-9.497-3.879-13.718-12.707-13.718c-2.008,0-4.016,0.264-6.424,0.79v12.401h-12.306c-4.013,0-6.153-1.32-6.153-4.883
		c0-7.519,11.504-15.301,29.162-15.301c18.729,0,25.016,6.464,25.016,23.349v34.166l1.74,1.847l7.089,0.658v5.804h-23.812
		l-1.739-7.52C181.965,131.696,174.742,134.731,167.518,134.731z M190.526,99.115c-15.784,3.431-22.875,6.859-22.875,15.564
		c0,6.069,3.745,9.895,9.9,9.895c3.478,0,7.757-1.318,12.975-3.959V99.115z"/>
	<path d="M254.197,134.599c-19.396,0-32.104-13.322-32.104-32.45c0-20.05,14.447-34.166,34.513-34.166
		c13.779,0,22.072,6.334,22.072,14.379c0,5.146-3.879,8.971-9.631,8.971c-2.943,0-5.485-0.793-7.894-2.507V74.843
		c-1.337-0.263-2.408-0.395-3.345-0.395c-9.363,0-17.523,9.497-17.523,24.535c0,15.827,8.16,25.192,20.601,25.192
		c5.753,0,12.039-1.979,18.596-5.936v9.366C270.92,132.224,262.76,134.599,254.197,134.599z"/>
	<path d="M354.256,101.751c0,19.525-13.512,32.848-34.646,32.848c-20.068,0-33.578-13.19-33.578-33.11
		c0-20.315,13.646-33.77,34.647-33.77C341.146,67.719,354.256,80.779,354.256,101.751z M304.625,100.961
		c0,17.279,6.02,26.646,15.385,26.646c9.898,0,15.785-9.103,15.785-26.25c0-17.279-6.154-26.646-15.65-26.646
		C310.645,74.711,304.625,83.946,304.625,100.961z"/>
	<path d="M385.689,36.061v37.728c7.223-3.959,13.509-5.938,19.395-5.938c15.252,0,26.355,12.138,26.355,29.943
		c0,15.302-7.358,26.647-21.138,32.716c-4.95,2.11-12.44,3.163-22.741,3.163c-1.203,0-2.408,0-3.611,0l-14.849-0.263V47.405h-9.633
		v-5.144l19.798-6.201H385.689z M389.969,126.551c16.188,0,23.543-8.047,23.543-25.326c0-15.037-7.088-23.083-19.395-23.083
		c-2.408,0-5.219,0.396-8.428,1.053v47.226C387.159,126.551,388.632,126.551,389.969,126.551z"/>
</g>
<line fill="none" stroke="#EB7B59" stroke-width="10" stroke-linecap="square" stroke-miterlimit="10" x1="47.939" y1="26.973" x2="47.939" y2="155.973"/>
<text transform="matrix(1 0 0 1 460.4014 135.1016)"><tspan x="0" y="0" font-family="'FiraSans-ExtraLight'" font-size="149.9748">Campbell,</tspan><tspan x="656.13" y="0" fill="#EB7B59" font-family="'FiraSans-ExtraLight'" font-size="149.9748">...</tspan></text>
</svg>
