<?xml version="1.0" standalone="no"?>
<!DOCTYPE svg PUBLIC "-//W3C//DTD SVG 20010904//EN"
 "http://www.w3.org/TR/2001/REC-SVG-20010904/DTD/svg10.dtd">
<svg version="1.0" xmlns="http://www.w3.org/2000/svg"
 width="1084.000000pt" height="1084.000000pt" viewBox="0 0 1084.000000 1084.000000"
 preserveAspectRatio="xMidYMid meet">
<metadata>
Created by potrace 1.11, written by Peter Selinger 2001-2013
</metadata>
<g transform="translate(0.000000,1084.000000) scale(0.100000,-0.100000)"
fill="#000000" stroke="none">
<path d="M5336 10798 c-56 -50 -63 -84 -65 -302 0 -105 -1 -205 -1 -223 0 -38
-5 -40 -115 -48 -157 -11 -257 -21 -335 -30 -115 -14 -263 -39 -343 -56 -51
-11 -103 -22 -116 -25 -186 -38 -492 -134 -739 -233 -890 -357 -1678 -1002
-2213 -1811 -259 -391 -474 -853 -604 -1295 -23 -78 -81 -305 -90 -355 -25
-128 -45 -244 -50 -285 -4 -27 -8 -57 -10 -65 -2 -8 -7 -42 -10 -75 -3 -33 -8
-69 -10 -80 -3 -18 -6 -59 -20 -279 -5 -72 16 -67 -292 -68 -162 0 -187 -2
-223 -20 -90 -45 -116 -141 -60 -222 47 -70 74 -76 328 -76 119 0 223 -4 230
-8 7 -5 15 -36 17 -73 8 -107 16 -212 20 -249 2 -19 7 -64 10 -100 3 -36 8
-72 10 -80 2 -8 7 -35 10 -60 3 -25 10 -67 15 -95 5 -27 12 -66 15 -85 4 -19
11 -55 16 -80 6 -25 13 -55 15 -68 37 -193 190 -663 278 -856 14 -31 26 -59
26 -62 0 -15 180 -363 240 -464 162 -272 366 -549 565 -770 65 -73 335 -342
405 -405 93 -83 352 -286 461 -361 105 -72 314 -204 324 -204 3 0 24 -12 47
-26 128 -81 481 -242 720 -328 251 -91 642 -194 838 -221 25 -3 52 -8 60 -10
8 -2 35 -7 60 -10 25 -3 61 -7 80 -10 91 -12 220 -23 344 -30 44 -2 84 -9 89
-14 6 -6 10 -95 9 -223 -1 -245 8 -292 62 -333 28 -21 44 -25 102 -25 61 0 73
3 98 26 53 49 57 75 57 318 -1 121 3 227 7 234 6 8 38 14 88 17 91 5 204 14
254 20 19 3 76 9 125 15 95 12 289 44 365 61 25 6 56 13 70 15 189 35 621 176
838 275 35 16 65 29 68 29 7 0 276 135 341 171 705 390 1269 909 1708 1574
171 260 340 578 440 830 26 66 51 129 56 140 44 101 152 465 183 615 3 14 16
80 30 146 14 67 27 139 30 160 3 22 8 57 11 79 22 164 33 266 40 400 4 55 11
105 17 112 8 10 63 13 227 13 119 0 232 5 253 10 20 6 50 25 67 42 29 30 31
36 31 107 -1 63 -4 81 -23 103 -41 51 -72 56 -316 56 -172 0 -227 4 -237 14
-8 8 -15 49 -19 103 -9 154 -22 289 -30 336 -2 9 -6 40 -10 70 -9 77 -48 301
-59 337 -3 9 -8 33 -11 52 -28 169 -192 663 -292 880 -223 483 -452 847 -761
1205 -86 99 -334 352 -427 434 -140 123 -433 351 -537 416 -9 6 -40 26 -69 46
-186 126 -527 306 -769 407 -69 29 -129 52 -134 52 -4 0 -22 7 -39 15 -67 30
-445 145 -558 169 -203 43 -274 57 -306 62 -21 3 -45 7 -53 9 -8 2 -41 7 -73
10 -32 4 -66 8 -75 10 -16 3 -79 10 -177 20 -22 2 -87 7 -145 11 -58 3 -110
11 -117 16 -9 7 -12 71 -12 233 0 250 -4 269 -65 323 -32 28 -44 32 -95 32
-51 0 -62 -4 -95 -32z m-71 -1198 c12 -19 8 -1149 -4 -1163 -5 -7 -29 -14 -53
-16 -23 -1 -90 -9 -148 -17 -58 -8 -123 -17 -145 -20 -68 -9 -320 -72 -423
-105 -373 -122 -717 -316 -1033 -585 -77 -66 -291 -285 -361 -370 -184 -224
-353 -505 -450 -749 -11 -27 -25 -61 -31 -75 -6 -14 -11 -27 -12 -30 -1 -3
-17 -54 -37 -115 -78 -236 -124 -462 -143 -700 -3 -38 -11 -73 -18 -77 -15
-10 14 -9 -621 -10 -408 0 -540 3 -546 12 -8 12 -6 58 5 197 6 86 14 155 20
193 2 14 7 45 10 70 12 93 48 270 85 415 164 643 483 1244 919 1735 169 190
424 430 587 551 32 24 65 49 72 56 27 26 283 193 382 250 427 246 992 451
1405 509 22 4 49 7 60 9 11 2 43 6 70 10 28 3 61 8 75 10 14 3 63 8 110 11 47
3 86 7 88 8 8 9 131 5 137 -4z m580 -5 c22 -3 58 -7 80 -10 22 -2 63 -7 90
-10 40 -5 240 -41 330 -59 339 -70 801 -246 1145 -437 173 -96 455 -288 580
-395 210 -179 256 -221 381 -349 592 -608 1005 -1428 1130 -2250 6 -38 12 -81
15 -95 2 -14 6 -52 10 -85 3 -33 7 -71 10 -85 12 -78 15 -238 5 -245 -7 -3
-269 -7 -583 -7 -464 0 -573 3 -583 14 -7 7 -16 51 -19 98 -7 93 -21 200 -36
270 -5 25 -12 56 -14 70 -2 14 -10 48 -16 75 -6 28 -13 58 -15 68 -14 67 -92
301 -140 417 -38 92 -135 285 -185 366 -24 38 -52 85 -63 104 -12 19 -24 37
-27 40 -3 3 -23 31 -45 63 -91 134 -282 349 -439 495 -65 60 -211 178 -286
231 -284 202 -653 371 -991 455 -194 49 -411 84 -526 86 -66 0 -63 -28 -63
599 0 440 3 570 13 580 11 12 108 10 242 -4z m-575 -1822 c1 -41 1 -963 1
-1000 -1 -37 -16 -48 -76 -57 -115 -19 -234 -61 -385 -138 -248 -126 -454
-340 -572 -595 -34 -75 -52 -127 -98 -278 -5 -16 -11 -48 -15 -70 -3 -22 -12
-46 -19 -54 -19 -19 -1028 -20 -1051 -1 -19 16 -11 125 20 280 2 14 10 50 16
80 27 139 111 377 181 515 344 676 899 1120 1613 1290 137 32 139 33 200 41
28 3 51 7 52 8 1 0 31 2 67 4 l66 3 0 -28z m524 12 c6 -2 27 -6 46 -9 19 -3
67 -12 105 -21 39 -9 77 -18 86 -20 79 -16 298 -95 419 -153 682 -321 1185
-958 1329 -1682 30 -153 31 -158 38 -241 4 -52 2 -78 -6 -83 -19 -12 -1041
-10 -1053 2 -6 6 -17 44 -25 84 -8 40 -16 78 -17 83 -14 53 -29 98 -41 122 -8
15 -15 32 -15 36 0 17 -92 191 -132 250 -199 299 -506 498 -868 563 -76 14
-69 -35 -70 547 0 288 3 527 7 531 7 7 170 -1 197 -9z m-3388 -2543 c7 -4 15
-38 19 -77 10 -110 22 -205 30 -245 3 -14 8 -41 11 -60 11 -58 12 -62 32 -150
29 -126 68 -252 114 -370 35 -91 59 -146 134 -305 44 -94 165 -288 248 -400
328 -441 731 -766 1217 -983 109 -48 384 -146 439 -156 14 -2 72 -15 130 -29
58 -14 123 -27 145 -30 22 -3 72 -10 110 -16 39 -5 99 -13 135 -16 96 -8 100
-11 101 -53 0 -20 0 -279 0 -575 0 -401 -3 -542 -12 -553 -8 -10 -28 -13 -78
-9 -174 13 -223 16 -239 19 -9 2 -42 7 -72 11 -110 14 -308 50 -395 72 -11 3
-27 6 -35 7 -68 12 -343 95 -475 144 -193 72 -471 204 -629 300 -37 23 -70 42
-73 42 -6 0 -331 218 -343 230 -3 3 -45 37 -95 75 -194 150 -446 391 -595 570
-41 50 -77 92 -80 95 -3 3 -37 48 -76 100 -367 493 -643 1101 -758 1670 -16
80 -22 113 -40 225 -15 94 -27 199 -32 293 -4 59 -8 116 -9 127 0 11 3 28 7
38 8 16 46 17 581 17 315 0 577 -4 583 -8z m1702 -4 c5 -7 19 -56 30 -109 76
-346 287 -649 587 -839 125 -80 320 -157 457 -180 37 -7 72 -18 78 -26 13 -15
18 -1033 5 -1053 -7 -13 -124 -5 -225 14 -268 52 -493 126 -707 235 -300 153
-549 355 -755 613 -72 91 -167 223 -194 272 -6 11 -25 45 -43 75 -56 96 -129
251 -166 355 -34 93 -91 302 -101 370 -3 17 -6 39 -8 50 -23 151 -27 207 -14
222 15 19 1041 19 1056 1z m3701 3 c15 -10 13 -64 -9 -201 -21 -132 -115 -481
-139 -515 -4 -5 -16 -32 -26 -60 -36 -100 -186 -371 -252 -455 -249 -320 -462
-506 -803 -702 -215 -123 -455 -210 -700 -254 -174 -31 -258 -38 -276 -23 -12
10 -14 85 -14 524 1 386 4 516 13 527 7 9 39 21 72 27 33 7 71 15 85 17 110
22 303 111 428 196 99 68 262 231 330 330 70 102 138 235 151 293 2 6 6 15 11
20 4 6 20 62 35 125 15 63 31 125 36 138 l9 22 517 0 c285 0 524 -4 532 -9z
m1810 -5 c10 -12 8 -140 -4 -236 -2 -19 -7 -62 -10 -95 -3 -33 -8 -71 -10 -85
-3 -14 -7 -38 -9 -55 -84 -541 -269 -1049 -554 -1525 -104 -172 -237 -358
-389 -543 -102 -123 -382 -402 -516 -512 -276 -228 -619 -448 -892 -572 -38
-17 -96 -44 -129 -58 -32 -15 -100 -42 -150 -61 -50 -19 -100 -39 -111 -44
-24 -11 -221 -73 -285 -90 -66 -18 -66 -18 -180 -45 -189 -44 -385 -76 -570
-90 -146 -12 -185 -13 -202 -4 -16 9 -18 49 -18 582 0 314 4 577 8 583 4 6 44
14 88 18 45 4 93 9 105 11 13 2 44 6 69 9 432 56 904 241 1285 504 292 202
591 504 785 792 241 358 409 774 474 1175 17 100 26 169 32 240 10 129 -61
115 598 115 470 0 576 -2 585 -14z"/>
</g>
</svg>
