<svg id="Layer_1" data-name="Layer 1" xmlns="http://www.w3.org/2000/svg" viewBox="0 0 1621 501"><defs><style>.cls-1{font-size:116.78px;font-family:AvenirNext-Heavy, Avenir Next;font-weight:800;}.cls-2{letter-spacing:-0.06em;}.cls-3{font-size:96.48px;font-family:AvenirNext-UltraLight, Avenir Next;font-weight:100;}.cls-4{letter-spacing:-0.01em;}.cls-5{fill:#f7931e;stroke:#f7931e;stroke-miterlimit:10;stroke-width:10px;}</style></defs><g id="jV6qDT.tif"><path d="M225.53,425.06c4.24-.83,7.16,1.12,9.44,4.57,6.73,10.22,13.56,20.38,20.34,30.58,2.85,4.28,3.62,4.51,8.37,2.36l61.42-27.75c4.56-2.06,5-3.07,3.7-7.94-3.23-11.88-6.37-23.79-9.7-35.64-1.21-4.31-.23-7.52,3.29-10.34a96.11,96.11,0,0,0,18.48-19.57c2.71-3.82,6.09-5,10.62-4,12.13,2.57,24.29,5,36.44,7.43,3.8.77,5.33,0,6.73-3.7q12.12-32.1,24.19-64.22c1.48-4,.89-5.46-2.81-7.57-10.49-6-20.92-12-31.5-17.86-4.82-2.66-6.57-6.36-5.9-11.74a82.46,82.46,0,0,0-.87-24.89c-.87-4.88.4-8.23,4.69-11,10.47-6.67,20.73-13.66,31.06-20.53,3.37-2.25,3.75-3.39,2.09-7.06Q401.35,164.57,387,133c-1.51-3.32-2.79-3.95-6.32-3-12.22,3.25-24.46,6.45-36.62,9.89-4.31,1.22-7.43.45-10.28-3.17A87.44,87.44,0,0,0,315,119.21c-4.62-3.23-6.2-7.11-5-12.65,2.58-11.62,4.82-23.31,7.24-35,.92-4.43.21-5.88-4-7.46q-31.75-12-63.54-23.89c-4.29-1.62-5.69-1.09-7.94,2.87-5.94,10.41-12,20.77-17.77,31.26-2.57,4.66-6.07,6.71-11.41,6.1L206,154.82a98.37,98.37,0,1,1-.64,196.73Z"/></g><rect x="196.88" y="20.78" width="11" height="145.21" transform="translate(8.79 -17.07) rotate(4.94)"/><rect x="205.47" y="344.3" width="11" height="145.21" transform="matrix(0.96, -0.27, 0.27, 0.96, -105.09, 72.78)"/><rect x="183.15" y="337.58" width="7.45" height="93.45" transform="translate(-81.57 51.81) rotate(-12.98)"/><rect x="168.1" y="352.2" width="5.3" height="92.84" transform="translate(-49.11 24.84) rotate(-7.28)"/><rect x="153.15" y="316.64" width="3.26" height="85.82" transform="translate(12.2 -5.01) rotate(1.93)"/><rect x="144.37" y="337.56" width="2.49" height="81.5" transform="translate(-17.42 7.17) rotate(-2.66)"/><rect x="136.32" y="312.34" width="2.49" height="81.5" transform="translate(11.97 -4.43) rotate(1.93)"/><rect x="131.09" y="299.37" width="1" height="64.66" transform="translate(57.46 -17.36) rotate(9.65)"/><rect x="178.95" y="79.49" width="7.45" height="93.45" transform="translate(11.05 -14.66) rotate(4.74)"/><rect x="168.3" y="60.52" width="5.3" height="92.84" transform="translate(-4.78 8.06) rotate(-2.66)"/><rect x="157" y="82.96" width="3.26" height="85.82"/><rect x="145.95" y="69.2" width="2.49" height="81.5" transform="translate(-12.45 19.02) rotate(-7.09)"/><rect x="143.96" y="100.72" width="2.49" height="81.5" transform="translate(-16.36 19.01) rotate(-7.09)"/><rect x="133.52" y="93.95" width="1" height="64.66" transform="translate(-14.57 17.52) rotate(-7.09)"/><rect x="89" y="142" width="28" height="17" rx="4" transform="translate(61.23 -27.02) rotate(21.15)"/><rect x="68.81" y="166.88" width="28" height="17" rx="4" transform="translate(68.85 -18.06) rotate(21.15)"/><rect x="93.16" y="302.18" width="28" height="17" rx="4" transform="matrix(0.96, -0.27, 0.27, 0.96, -80.19, 40.67)"/><rect x="73" y="277" width="28" height="17" rx="4"/><rect x="107" y="328" width="9" height="9" rx="4"/><rect x="57" y="181" width="9" height="9" rx="4"/><rect x="67" y="146" width="9" height="9" rx="4"/><rect x="114" y="185" width="9" height="9" rx="4"/><rect x="53" y="303" width="9" height="9" rx="4"/><rect x="49" y="115" width="9" height="9" rx="4"/><rect x="37" y="158" width="9" height="9" rx="4"/><rect x="33" y="188" width="9" height="9" rx="4"/><rect x="33" y="281" width="9" height="9" rx="4"/><rect x="46" y="337" width="9" height="9" rx="4"/><rect x="72.83" y="332.73" width="28" height="17" rx="4" transform="translate(-74.45 28.23) rotate(-12.98)"/><text class="cls-1" transform="translate(441.86 283.13)">TRANSFORM<tspan class="cls-2" x="777.27" y="0">A</tspan><tspan x="860.88" y="0">TION</tspan></text><text class="cls-3" transform="translate(1128.71 353.53)">.suppo<tspan class="cls-4" x="297.54" y="0">r</tspan><tspan x="326.97" y="0">t</tspan></text><line class="cls-5" x1="1100" y1="332" x2="617" y2="332"/></svg>